<svg width="128" height="128" viewBox="0 0 128 128" fill="none" xmlns="http://www.w3.org/2000/svg">
<path d="M6.16889 81.851L6.38544 79.7121L8.54685 79.4474C9.17229 79.3695 9.64179 78.8426 9.63442 78.2194C9.62706 77.5962 9.1452 77.0766 8.51813 77.0174L6.35107 76.8039L6.08398 74.6668C6.00928 74.0483 5.47257 73.5843 4.84233 73.5917C4.21209 73.5992 3.6865 74.0758 3.62643 74.6958L3.40993 76.8387L1.25249 77.1033C0.623029 77.1774 0.157544 77.7081 0.16491 78.3313C0.172275 78.9545 0.650174 79.4741 1.28121 79.5333L3.4443 79.7468L3.71134 81.88C3.78609 82.5024 4.32275 82.9625 4.95299 82.9551C5.58324 82.9476 6.10887 82.475 6.16889 81.851Z" fill="white"/>
<path d="M18.9802 23.6967L19.3171 20.3412L22.7018 19.9288C23.3272 19.8509 23.7967 19.324 23.7894 18.7008C23.782 18.0776 23.3001 17.558 22.6731 17.4988L19.2796 17.1665L18.8635 13.8199C18.7888 13.2015 18.252 12.7374 17.6218 12.7449C16.9916 12.7523 16.466 13.2289 16.4059 13.849L16.069 17.2045L12.6843 17.6169C12.0589 17.6948 11.5894 18.2217 11.5967 18.8449C11.6041 19.4681 12.086 19.9876 12.713 20.0469L16.1065 20.3792L16.5226 23.7258C16.5973 24.3442 17.1341 24.8083 17.7643 24.8008C18.3945 24.7934 18.9162 24.3168 18.9802 23.6967Z" fill="white"/>
<path d="M43.4852 37.5658C43.6706 36.8149 43.7573 36.1004 43.7493 35.4224C43.7307 33.8507 43.1995 32.5086 42.1809 31.5249C39.3738 28.8103 33.8894 30.0119 29.6977 34.2518C27.8056 36.1675 26.4685 38.4255 25.9274 40.6113C25.3186 43.0998 25.7761 45.2464 27.2317 46.6522C30.0388 49.3629 35.5232 48.1652 39.715 43.9253C41.6072 42.0136 42.9481 39.7516 43.4852 37.5658ZM29.5392 44.32C29.1703 43.9637 28.9772 43.3976 28.9689 42.696C28.9643 42.3002 29.0185 41.8566 29.1358 41.3848C29.5291 39.7808 30.5984 38.0121 32.0597 36.5327C35.0174 33.5382 38.6263 32.6528 39.8775 33.861C41.1247 35.0693 40.3148 38.6577 37.361 41.6522C34.3993 44.6428 30.7903 45.5282 29.5392 44.32Z" fill="white"/>
<path d="M79.4053 17.3614C73.7871 15.2875 67.7843 14.2139 61.6285 14.2866C34.5399 14.6068 12.7548 36.6589 13.0713 63.4438C13.149 70.0166 14.5322 76.3583 17.0908 82.1962C12.0247 88.9356 8.02519 95.0156 5.26048 100.25C0.603531 109.07 -0.249413 114.721 2.65391 117.524C8.20388 122.88 23.6546 113.29 36.0201 103.959C44.0277 108.957 53.2558 111.56 62.7808 111.447C89.8694 111.127 111.651 89.0752 111.334 62.2864C111.217 52.3861 108.104 42.9446 102.364 34.9021C109.503 25.1121 116.618 13.6054 116.535 6.62106C116.514 4.79464 116 3.27979 114.869 2.18774C111.966 -0.615958 106.273 0.360746 97.4695 5.1726C92.211 8.04532 86.1269 12.1626 79.4053 17.3614ZM61.671 17.5514C67.6762 17.4804 73.5284 18.5598 78.9767 20.6749C78.9966 20.6825 79.0048 20.7059 79.0287 20.7135C81.7779 21.8805 84.432 23.0525 86.6774 24.5351C88.7823 25.8548 90.7706 27.3796 92.6574 29.0429L89.7981 32.9809C84.4318 41.4878 73.6409 54.2414 60.9405 67.0998C49.5485 78.6335 37.9858 88.813 29.643 94.6974C27.8698 92.923 26.2342 91.053 24.7993 89.059C24.771 89.0123 24.7822 88.9534 24.75 88.9067C23.1293 86.6249 21.7129 84.1838 20.5413 81.6537C20.5169 81.5991 20.457 81.5684 20.4287 81.5178C17.8648 75.8995 16.4564 69.7737 16.3811 63.4047C16.0818 38.4189 36.3979 17.8501 61.671 17.5514ZM90.5071 23.2041C95.2358 20.1182 96.9771 19.8585 97.3692 19.8264C97.3671 20.3203 97.1097 22.0207 94.4803 26.297C93.2026 25.191 91.8783 24.164 90.5071 23.2041ZM20.1493 99.8036C20.1698 99.1957 20.556 97.3214 23.4866 92.7044C24.549 94.0442 25.6822 95.3322 26.8941 96.5722C22.5898 99.3396 20.7474 99.7612 20.1493 99.8036ZM62.7422 108.183C54.2478 108.283 46.0153 106.064 38.7815 101.798C48.4055 94.2992 58.7581 85.0435 68.8966 74.7829C79.3327 64.2169 88.8022 53.3684 96.3035 43.3741L100.312 37.7213C105.251 45.0166 107.931 53.4676 108.036 62.3254C108.331 87.3113 88.0114 107.884 62.7422 108.183ZM112.562 4.52384C114.355 6.25485 113.433 14.5211 98.5853 34.5117L98.0077 35.2829C97.9999 35.2947 97.9882 35.3066 97.9804 35.3185L93.6249 41.4654C86.2406 51.3054 76.8729 62.0391 66.5346 72.502C55.8712 83.2941 44.9495 93.0348 34.9465 100.664C15.0936 115.813 6.75784 116.923 4.96131 115.188C4.5603 114.801 4.31031 114.11 4.29808 113.076C4.27241 110.904 5.29546 107.235 8.18424 101.764C10.6504 97.0935 14.2751 91.5001 18.7312 85.4813C19.538 86.9927 20.4196 88.464 21.3919 89.8911C16.9168 96.6588 15.8389 100.376 17.7597 102.231C19.6766 104.086 23.3814 102.925 30.0752 98.3927C30.2922 98.3078 30.493 98.1878 30.6653 98.0094C30.6771 97.9975 30.6769 97.9857 30.6887 97.9738C39.3595 92.0033 51.2169 81.6086 63.3024 69.3768C76.1595 56.3597 87.1105 43.4004 92.5352 34.8027L95.5356 30.7219L95.9602 30.0897C100.584 23.136 101.721 19.3673 99.7716 17.4813C97.8467 15.6225 94.1771 16.74 87.5739 21.2279C87.2266 21.0164 86.8283 20.8604 86.4691 20.6608C85.2958 20.0005 84.1032 19.3834 82.8835 18.8256C82.8795 18.8256 82.8795 18.8217 82.8755 18.8217C88.8438 14.2864 94.4055 10.5791 99.0692 8.03091C107.128 3.61984 111.323 3.32723 112.562 4.52384Z" fill="white"/>
<path d="M37.0609 116.216C36.583 116.7 36.5922 117.476 37.0814 117.945L38.7255 119.532C39.2147 120.005 39.9956 119.996 40.4735 119.512L42.0797 117.886C42.3187 117.644 42.4339 117.329 42.4302 117.015C42.4265 116.702 42.3038 116.389 42.0592 116.153L40.4151 114.566C40.1785 114.337 39.8639 114.215 39.5349 114.219C39.2059 114.223 38.8943 114.356 38.6631 114.586L37.0609 116.216Z" fill="white"/>
<path d="M65.6222 0.335518L64.016 1.96166C63.5381 2.44554 63.5472 3.21765 64.0365 3.6901L65.6806 5.27783C65.9172 5.50239 66.2318 5.62802 66.5608 5.62413C66.8898 5.62025 67.2014 5.48721 67.4326 5.25712L69.0388 3.63098C69.2699 3.39697 69.3931 3.08585 69.3892 2.76054C69.3854 2.43523 69.2509 2.12715 69.0183 1.89862L67.3742 0.310894C66.881 -0.157586 66.1001 -0.14836 65.6222 0.335518Z" fill="white"/>
<path d="M7.38477 37.475C7.62374 37.2331 7.73894 36.9181 7.73524 36.6046C7.73153 36.291 7.60495 35.9789 7.3643 35.7427L5.72015 34.1549C5.23091 33.6825 4.45004 33.6917 3.97211 34.1756L2.36595 35.8017C1.88801 36.2856 1.89714 37.0577 2.38637 37.5302L4.03052 39.1179C4.51976 39.5904 5.30063 39.5811 5.77856 39.0973L7.38477 37.475Z" fill="white"/>
<path d="M36.847 8.55854C37.086 8.3166 37.2012 8.00165 37.1975 7.6881C37.1938 7.37455 37.0672 7.06245 36.8265 6.82618L35.1824 5.23845C34.6931 4.76601 33.9123 4.77524 33.4343 5.25911L31.8282 6.88917C31.3503 7.37305 31.3594 8.14517 31.8487 8.61761L33.4928 10.2053C33.982 10.6778 34.7629 10.6686 35.2408 10.1847L36.847 8.55854Z" fill="white"/>
<path d="M118.517 48.866L118.294 51.0912L116.049 51.3647C115.42 51.4388 114.954 51.9695 114.962 52.5927C114.969 53.2159 115.451 53.7355 116.078 53.7947L118.328 54.0151L118.604 56.2344C118.683 56.8567 119.216 57.3169 119.846 57.3094C120.476 57.302 121.002 56.8254 121.062 56.2053L121.285 53.9801L123.53 53.7066C124.159 53.6325 124.625 53.1018 124.618 52.4786C124.61 51.8554 124.132 51.3358 123.501 51.2766L121.251 51.0563L120.975 48.8369C120.9 48.2146 120.363 47.7544 119.733 47.7619C119.103 47.7693 118.581 48.2459 118.517 48.866Z" fill="white"/>
<path d="M111.351 103.61L111.095 106.165L108.518 106.477C107.893 106.551 107.423 107.082 107.431 107.705C107.438 108.329 107.92 108.848 108.547 108.907L111.127 109.159L111.446 111.707C111.521 112.326 112.058 112.79 112.688 112.782C113.318 112.775 113.844 112.298 113.904 111.678L114.159 109.127L116.732 108.815C117.358 108.741 117.827 108.21 117.82 107.587C117.812 106.963 117.335 106.444 116.704 106.385L114.12 106.133L113.804 103.589C113.73 102.97 113.193 102.506 112.563 102.514C111.94 102.517 111.415 102.99 111.351 103.61Z" fill="white"/>
<path d="M114.755 26.7159C114.277 27.1998 114.286 27.9758 114.775 28.4444L116.42 30.0321C116.909 30.5045 117.69 30.4953 118.168 30.0114L119.774 28.3853C120.013 28.1434 120.128 27.8284 120.124 27.5149C120.121 27.2013 119.998 26.8892 119.753 26.6529L118.109 25.0652C117.873 24.8367 117.558 24.715 117.229 24.7189C116.9 24.7228 116.588 24.8558 116.357 25.0859L114.755 26.7159Z" fill="white"/>
<path d="M70.73 119.891C70.2716 120.355 70.2812 121.166 70.7504 121.62L72.3946 123.207C72.8838 123.68 73.6647 123.67 74.1426 123.187L75.7488 121.56C75.9877 121.319 76.1029 121.004 76.0992 120.69C76.0955 120.376 75.9689 120.064 75.7283 119.828L74.0841 118.24C73.5949 117.768 72.814 117.777 72.3361 118.261L70.73 119.891Z" fill="white"/>
<path d="M122.936 88.9458C122.704 89.1798 122.581 89.4909 122.585 89.8162C122.589 90.1415 122.723 90.4496 122.956 90.6781L124.6 92.2658C124.833 92.4944 125.151 92.616 125.48 92.6122C125.809 92.6083 126.121 92.4752 126.352 92.2451L127.958 90.619C128.197 90.3771 128.312 90.0621 128.309 89.7486C128.305 89.435 128.182 89.1229 127.938 88.8866L126.294 87.2989C125.804 86.8265 125.024 86.8357 124.546 87.3196L122.936 88.9458Z" fill="white"/>
<path d="M89.6093 124.007C89.1314 124.491 89.1406 125.267 89.6297 125.736L91.2739 127.323C91.7631 127.796 92.544 127.787 93.0219 127.303L94.6281 125.677C94.8671 125.435 94.9823 125.12 94.9786 124.806C94.9749 124.493 94.8483 124.181 94.6076 123.944L92.9635 122.357C92.7308 122.128 92.4123 122.006 92.0833 122.01C91.7543 122.014 91.4426 122.147 91.2115 122.377L89.6093 124.007Z" fill="white"/>
</svg>
